<svg version="1" xmlns="http://www.w3.org/2000/svg" width="2669.333" height="2669.333" viewBox="0 0 2002.000000 2002.000000"><path d="M499.6 136.6c-.4.9-3.2 6-6.3 11.3-3.2 5.3-5.8 9.8-5.8 10.1 0 .3-.8 1.6-1.7 3-.9 1.4-8.2 14-16.2 28s-15 26.2-15.6 27c-.5.8-3.7 6.4-7.2 12.5-3.5 6-7.6 13.2-9.2 16-1.6 2.7-3.7 6.3-4.6 8-3.3 6.3-10.4 18.1-11.8 19.7-.8 1-1.2 1.8-.8 1.8.4 0-.1 1.2-1.2 2.7-1.1 1.6-7.1 11.8-13.5 22.8-6.3 11-12.4 21.6-13.6 23.5-1.1 1.9-2.4 4.2-2.8 5-.4.8-2.3 4.2-4.3 7.5s-3.9 6.7-4.3 7.5c-.4.8-1.5 2.8-2.6 4.5-1 1.6-2.8 4.8-4.1 7-5.1 9.1-7.6 13.4-11.7 20.2-2.4 4-4.3 7.5-4.3 7.8 0 .2-1.5 2.8-3.4 5.7-1.8 2.9-4.5 7.5-6 10.3-1.5 2.7-3.5 6.3-4.5 8-2 3.3-23.1 39.8-26.4 45.5-6.1 10.9-34.5 59.8-37.6 65-1.1 1.9-2.4 4.2-2.8 5-.4.8-2.6 4.6-4.8 8.5-2.3 3.8-5.3 9-6.7 11.5-1.4 2.5-8.3 14.4-15.3 26.5s-13.9 24-15.3 26.5c-2.9 5.2-6.1 10.7-8 13.5-.6 1.1-1.5 2.7-1.9 3.5-.4.8-2.8 5.1-5.4 9.5-2.6 4.4-5.6 9.6-6.7 11.5-1.1 1.9-7 12.3-13.2 23-6.2 10.7-12 20.8-13 22.5-6.3 11-17.5 30.3-19.1 32.9-1 1.7-2.3 4-2.9 5.1-.5 1.1-2.2 4.1-3.7 6.7-6.6 11.2-24 41.2-25.8 44.6-2.3 4.2-12 20.9-13.5 23.2-.6.8-1.3 2.2-1.7 3-.4.8-4.9 8.6-10 17.3-5.1 8.8-9.3 16.1-9.3 16.3 0 .2-2 3.7-4.5 7.7-2.5 4.1-4.5 7.8-4.5 8.1 0 .4-.5 1.2-1.1 1.9-.5.7-9.7 16.3-20.3 34.7C60 898.4 47 920.9 41.8 930c-5.3 9.1-10.6 18.4-11.9 20.6-6.5 11.2-19.7 34.1-22.1 38.2-1.5 2.6-3.7 6.4-4.8 8.5l-2.1 3.8 6.2 10.7c3.4 5.9 7.3 12.7 8.6 15.2 1.4 2.5 3.8 6.5 5.3 9 2.4 3.8 9.3 15.9 16.7 29 1.1 1.9 4.9 8.5 8.5 14.6 3.6 6.1 6.8 11.7 7.2 12.5.4.8 1.2 2.3 1.9 3.4s5.7 9.8 11.2 19.3c5.5 9.5 10.7 18.5 11.6 20 .9 1.5 2.7 4.7 4.1 7.2 1.4 2.5 4.9 8.5 7.8 13.5 2.9 4.9 6.2 10.6 7.2 12.5 1.7 2.9 11.9 20.7 37.8 65.5 1 1.6 5.9 10.2 11 19s10.1 17.6 11.2 19.5c7 12.3 25.5 44.1 27.4 47.2 1.3 2.1 2.4 4 2.4 4.2 0 .2 2.7 5 6 10.6s6 10.3 6 10.6c0 .2 1.5 2.7 3.4 5.6 1.8 2.9 4.5 7.5 6 10.3 1.5 2.7 3.6 6.4 4.5 8.1 3.8 6.3 24.5 42.1 26.9 46.4 3 5.3 6.2 10.8 8 13.5.6 1.1 1.5 2.7 1.9 3.5.6 1.3 26.9 47 29.3 51 .5.8 3.7 6.2 7 12s6.5 11.2 7 12c2.5 4 10 17.2 10 17.6 0 .2 1.1 2.1 2.4 4.2 1.9 3 19.8 33.9 27.4 47.2 1.1 1.9 5.2 9.1 9.2 16 4 6.9 8.1 14.1 9.2 16 9.8 17.2 14.4 25.2 16.8 29 1.5 2.5 6.4 11 11 19s11.3 19.7 15 26c3.7 6.3 7.8 13.5 9.2 16 1.4 2.5 9 15.8 17 29.5 8 13.8 15.7 27 17.1 29.5 1.4 2.5 8.2 14.4 15.2 26.5s13.6 23.5 14.6 25.2c1.1 1.8 2.7 4.8 3.8 6.5 2.5 4.4 6.8 12 18.6 32.3 5.3 9.3 10.2 17.6 10.7 18.2 1.5 1.9 1000.1 1.9 1001.5.1.6-.7 2.4-3.8 4.1-6.8 1.6-3 7-12.5 12-21 8.1-14.1 37-64.2 41.2-71.5 10.6-18.5 13.4-23.3 14.5-25 .7-1.1 1.3-2.5 1.4-3 .1-.6.8-1.7 1.4-2.5.7-.8 1.8-2.6 2.6-4s6.7-11.6 13.1-22.6c6.4-11.1 12-20.8 12.4-21.5.3-.8 1.4-2.8 2.4-4.4 1.1-1.7 5.4-9.1 9.7-16.5 4.3-7.4 8.6-14.9 9.7-16.5 1-1.7 2.1-3.7 2.5-4.5.3-.8 2.5-4.7 4.8-8.5 3.5-5.8 13.9-23.8 22.2-38.5 1.1-1.9 9.6-16.6 18.8-32.5 9.2-16 18-31 19.4-33.5 9.9-17.2 15.9-27.6 17.5-30.3 4.3-7.4 28.6-49.5 30.4-52.7 1.1-1.9 8.6-15 16.7-29 25.5-44 29.7-51.3 31.5-54.4.9-1.7 4.3-7.6 7.5-13.1s9.9-17.2 15-26 12.7-22.1 17-29.5c7.7-13.4 13.1-22.7 16.5-28.5 19.4-33.9 26.4-45.9 32-55.5 6.8-11.6 17.7-30.5 27.8-48 3-5.2 6.2-10.9 7.2-12.5.9-1.7 6.1-10.7 11.5-20 5.4-9.4 12.1-21.1 15-26 2.9-5 6.2-10.6 7.3-12.5 1.8-3.2 22.1-38.4 26.2-45.5 13.1-22.5 18.8-32.6 19.4-33.7.3-.7 2-3.6 3.6-6.3 5.8-9.4 6.1-7.4-4.4-25.4-5.3-9-9.6-16.5-9.6-16.7 0-.1-4.3-7.5-9.5-16.5-5.2-8.9-9.5-16.4-9.5-16.6 0-.2-1.1-2-2.3-4.1-1.3-2-9.5-16.1-18.2-31.2-8.7-15.1-19-32.9-22.8-39.5-3.8-6.6-8.1-14-9.5-16.5-1.4-2.5-3.6-6.2-4.9-8.2-1.2-2.1-2.3-4.2-2.3-4.8 0-.5-.4-1-1-1-.5 0-1-.5-1-1.1 0-.6-2.3-4.9-5.1-9.7-2.9-4.8-6.3-10.7-7.7-13.2-2.4-4.3-16.4-28.6-24.2-42-2.1-3.6-4.2-7.3-4.7-8.4-.9-1.6-1.5-1.1-4.5 4-3.3 5.5-12.4 21.2-17.1 29.4-2 3.6-18 31.3-40.7 70.5-11.7 20.2-21.8 37.8-26.7 46.5-1.1 1.9-13.5 23.3-27.5 47.5-22.5 38.8-64.7 112-69.7 120.8-1 1.8-5.1 8.8-9.1 15.7-4 6.9-8 13.8-9 15.5-.9 1.6-7.7 13.3-14.9 26-7.3 12.6-16.6 28.6-20.6 35.5-4 6.9-8.2 14.2-9.4 16.3-1.2 2.1-5.6 9.8-9.8 17-13.1 22.6-21.4 37-23.8 41.2-3.3 6-16.4 28.8-17.5 30.5-1 1.6-10.2 17.5-13 22.5-4.8 8.4-15.1 26.2-15.9 27.5-.6.8-3.8 6.4-7.3 12.5-3.4 6-6.7 11.8-7.3 12.7-.5.9-1.7 2.9-2.6 4.5-3.6 6.4-5.9 10.4-8.3 14.2-1.5 2.2-2.6 4.3-2.6 4.5 0 .3-3.8 6.9-8.4 14.8-7.3 12.5-70 121.2-74.6 129.3-.9 1.6-4.4 7.6-7.8 13.2-3.3 5.6-6.3 11.1-6.7 12.3-.3 1.1-1.1 2-1.7 2-.6 0-.8.3-.5.7.4.3.1 1.3-.6 2.2-.8.9-3.4 5.2-5.9 9.6-7 12.3-7.7 13.6-21.3 37-7 12.1-13.6 23.6-14.6 25.6l-1.9 3.6-71.7-.1-71.7-.1-7.8-13.5c-4.3-7.4-8.3-14.4-8.8-15.5-.6-1.1-1.9-3.5-3-5.3-1.8-2.9-21-36.1-26.1-44.9-1-1.8-6.9-11.9-13-22.5-6.2-10.6-12.9-22.2-14.9-25.8-2-3.6-7.8-13.7-12.9-22.5-5.1-8.8-13.7-23.6-19-32.8-5.3-9.2-10.3-18-11.2-19.5-1.9-3.3-19.3-33.3-22.1-38.2l-11.3-19.5c-5.1-8.8-10.3-17.8-11.5-20-1.3-2.2-3.1-5.4-4.1-7-1.1-1.7-2.2-3.7-2.6-4.5-.4-.8-2.8-5.1-5.4-9.5-2.6-4.4-5.6-9.6-6.7-11.5-3.5-6.2-43.4-75.4-45.3-78.5-1-1.7-3-5.3-4.5-8-1.5-2.8-4.2-7.4-6-10.3-1.9-2.9-3.4-5.5-3.4-5.7 0-.3-2-3.8-4.3-7.8-5.9-9.7-35.5-61-38.6-66.9-2.3-4.3-3-4.8-6.1-4.8-14.3-.3-281.2-.1-281.5.2-.2.1 1.6 3.7 4 7.8 2.5 4.1 4.9 8.4 5.5 9.5.5 1.1 1.5 2.7 2 3.5.6.8 4.9 8.2 9.6 16.5 4.8 8.2 9.5 16.5 10.5 18.3 21 36.5 43 74.6 56.4 97.7 9.2 15.9 17.9 31.1 19.4 33.6 1.4 2.5 14.7 25.5 29.4 51 14.8 25.5 27.2 47.1 27.7 47.9.5.8 3.1 5.3 5.8 10 2.7 4.7 9.2 15.9 14.4 25 5.2 9.1 12.9 22.3 17 29.5 4.1 7.1 11 19.1 15.3 26.5 4.3 7.4 8.6 14.8 9.5 16.5 8.1 14 50.7 87.8 52.2 90.5 1.1 1.9 2.4 3.9 2.8 4.5.4.5 1 2 1.4 3.1l.7 2.2H643.9l-5.3-9.2c-5-8.4-17.1-29.4-21.8-37.6-2.8-4.9-15.1-26.1-16.3-28.2-.5-.9-2.3-4.1-3.9-7-1.5-2.9-3.4-6-4.2-6.9-.8-.8-1.4-1.8-1.4-2.1 0-.4-2.7-5.2-6-10.8-3.3-5.6-6-10.3-6-10.5 0-.2-3.1-5.6-7-12.1-3.8-6.4-7-11.9-7-12.2 0-.3-1.4-2.8-3.2-5.6-3.6-5.9-5.9-9.9-10.1-17.6-1.6-3-3.6-6.2-4.3-7.1-.8-.8-1.4-1.8-1.4-2.2 0-.3-2-3.9-4.3-7.9-4.1-6.8-22-37.8-26.5-45.8-2.6-4.6-18.2-31.7-29.2-50.5-4.8-8.3-9.8-17-11.2-19.5-5.3-9.4-32.2-55.8-36.4-62.8-2.4-4-4.4-7.4-4.4-7.6 0-.3-5.3-9.6-11.8-20.8-6.5-11.1-13-22.3-14.4-24.8-1.4-2.5-6.6-11.5-11.5-20s-13.3-22.9-18.5-32c-5.2-9.1-15.3-26.4-22.3-38.5-7-12.1-13.9-24-15.3-26.5-2.5-4.6-16.1-28-25.6-44.5-16.8-28.9-19.6-33.8-19.6-34.6 0-.5-.4-.9-1-.9-.5 0-1-.5-1-1.1 0-.7-1.4-3.4-3-6.1-2.7-4.4-2.9-5.2-1.8-7.3 1.6-3 17.9-31.3 26.3-45.5 3.4-5.8 7.3-12.5 8.7-15 3.8-6.8 6.2-11 9.5-16.6 1.7-2.7 4.2-7 5.5-9.5 4.7-8.1 13.4-23.2 23-39.9 29.9-51.7 38.9-67.3 41.4-72 1.1-1.9 2.1-3.7 2.4-4 .3-.3 1.1-1.6 1.9-3 .8-1.4 5.7-9.9 11-19 5.2-9.1 15.2-26.4 22.1-38.5 7-12.1 16.1-27.9 20.3-35.2 4.2-7.2 8.6-14.9 9.8-17 1.2-2.1 3.6-6.3 5.4-9.3 6-10 40.5-70.1 40.5-70.6 0-.3.5-1 1-1.7.6-.7 6.5-10.7 13.1-22.2 12.4-21.6 19.6-34 38.6-67 6.1-10.5 17-29.4 24.3-42 7.3-12.7 15.8-27.5 19-33 21-36.2 28-48.4 29.7-51.5l2-3.5 142.6-.1 142.7-.1-2.9 5.1c-1.6 2.8-3.7 6.7-4.7 8.6-1.1 1.9-2.2 3.6-2.6 3.8-.5.2-.8.7-.8 1.2 0 .8-1.7 3.7-7.9 14-.8 1.4-1.4 2.7-1.4 3 0 .3-.7 1.6-1.7 3-.9 1.4-6 9.9-11.2 19.1-5.3 9.1-10.7 18.4-12.2 20.7-1.4 2.3-2.6 4.4-2.6 4.7 0 .3-2 3.8-4.4 7.8-2.4 3.9-5.4 9.2-6.8 11.7-1.4 2.5-7.9 13.8-14.5 25.1-6.6 11.4-12.3 21.3-12.7 22-.3.8-1.5 2.9-2.7 4.8-1.9 3.2-29.7 51.1-33.7 58.1-1.1 1.9-6.1 10.7-11.2 19.5s-10.1 17.3-11 19c-1 1.6-7.5 12.9-14.5 25S751 690.6 743.8 703c-7.1 12.4-13.4 23.2-13.9 24-3.6 6-12.9 22.2-12.9 22.6 0 .2-1.1 2.1-2.3 4.2-2 3.1-13.3 22.4-19.7 33.6-8.7 15.4-28.5 49.6-38.2 66.1-3.6 6-7.9 13.6-9.7 16.7l-3.2 5.8h285.6l3.9-6.8c2.2-3.7 5.3-9.2 6.9-12.2 1.6-3 3.3-6 3.7-6.5 1.1-1.4 14-23.7 14-24.2 0-.2 1.1-2 2.4-4.1 1.3-2 6.6-11.1 11.9-20.2 12.7-22 42.6-73.7 44.7-77.5 4.8-8.4 8.1-14.2 9-15.5.6-.8 1.3-2.2 1.7-3 .4-.8 4.3-7.5 8.6-15 4.4-7.4 9-15.3 10.2-17.5 3.6-6.6 24.6-42.7 27.1-46.7 1.3-2.1 2.4-4 2.4-4.3 0-.4 6.3-11.3 9-15.5.5-.8 1.8-3.1 2.9-5 2.1-3.9 48.6-84.6 50.1-87 .5-.8 2.2-3.8 3.8-6.5 1.5-2.8 6.3-11 10.6-18.4 4.3-7.4 8.6-14.9 9.6-16.5 3.8-6.8 27.1-47.2 28-48.6.5-.8 3.5-6 6.7-11.5s6.2-10.8 6.8-11.7c.5-.9 1.7-2.9 2.6-4.5.8-1.5 5-8.8 9.3-16.2 4.3-7.4 8.6-14.9 9.6-16.5 3.2-5.7 31.2-54 38.5-66.6 4-6.9 8.3-14.3 9.5-16.5 1.2-2.2 3.4-6 5-8.5 1.5-2.5 5.8-9.9 9.5-16.5s9.6-16.7 13-22.5c3.4-5.8 7.3-12.5 8.7-15l10-17.5c2-3.3 6.9-11.9 11-19 4.1-7.2 11.8-20.5 17.1-29.7 5.3-9.1 9.7-16.9 9.7-17.2 0-.3-192.8-.6-428.4-.6-395.2 0-428.4.1-429 1.6z"/><path d="M1571.3 260.2c-.4.7-1.3 2.2-1.9 3.3-.6 1.1-7.6 13.2-15.6 27-7.9 13.7-15.3 26.6-16.3 28.5-1.1 1.9-2.5 4.2-3.1 5-.6.8-2.5 4-4.1 7-3.4 6.2-12.5 21.9-17 29.5-1.6 2.7-3.2 5.7-3.6 6.5-.4.8-1.7 3.1-2.8 5-1.2 1.9-8 13.6-15.1 26-7.2 12.4-15.4 26.5-18.3 31.5-2.9 4.9-6.8 11.7-8.6 15-1.8 3.3-3.7 6.1-4.1 6.3-.4.2-.8.8-.8 1.3 0 .7-20.3 36.3-27.9 49-1.1 1.9-2.4 4.1-2.8 4.9-.3.8-1.7 3.2-3 5.2-1.3 2.1-3.6 6.2-5.2 9-1.6 2.9-6.8 12-11.6 20.3-4.8 8.2-9.6 16.6-10.7 18.5-1.1 1.9-5.4 9.3-9.6 16.5-4.1 7.1-8.3 14.3-9.2 16-7.2 12.6-16.2 28.3-17 29.5-.5.8-2.2 3.7-3.8 6.5-1.6 2.7-3.8 6.7-5 8.7-1.2 2.1-3 5.3-4.1 7-1 1.8-4.3 7.6-7.3 12.8-3 5.2-8.1 14-11.3 19.5-3.2 5.5-6.6 11.3-7.5 13-.9 1.6-3.1 5.4-4.9 8.3-1.7 2.9-3.1 5.4-3.1 5.6 0 .2-1.7 3.3-3.8 6.7-2.2 3.5-5 8.4-6.4 10.9-1.4 2.5-5.7 9.9-9.5 16.5-3.9 6.6-8.1 14-9.5 16.5-1.4 2.5-8.3 14.4-15.3 26.5-11.6 19.9-25.1 43.3-52.3 90.5-5.2 9.1-10.3 17.8-11.2 19.5-1 1.6-4.2 7.3-7.2 12.5-14 24.3-21.1 36.6-21.8 37.5-.4.5-2.4 4.1-4.5 8-2.1 3.8-4.3 7.7-5 8.5-.7.8-1.5 2.2-1.8 3-.4.8-2 3.7-3.6 6.5-1.7 2.7-4.4 7.5-6.1 10.5-1.6 3-3.4 6.2-4 7-2.9 4.5-8.7 14.8-9.3 16.4-.4 1-.3 2.4.1 3 .5.6 2.1 3.1 3.4 5.6 1.4 2.5 5.4 9.5 9 15.6 3.6 6.1 6.8 11.7 7.1 12.5.4.8 1.7 3 2.8 4.9 1.2 1.9 9.8 16.8 19.2 33 9.3 16.2 21 36.4 25.8 44.7 4.9 8.4 10.1 17.4 11.6 20 1.4 2.7 9.8 17.2 18.6 32.3 8.7 15.1 17.2 29.7 18.7 32.5 1.5 2.7 8 13.9 14.3 24.8l11.5 19.9 5.5-9.4c15.8-27 30.7-52.9 30.7-53.3 0-.3 1.6-2.9 3.5-5.9 1.9-3 3.5-5.8 3.5-6.1 0-.3 1.1-2.4 2.6-4.6 1.4-2.2 3.3-5.5 4.3-7.2 8.5-14.8 30.5-53 34.1-59.1 1.1-1.7 2.5-4.2 3.3-5.6.7-1.4 8.2-14.4 16.7-29 13.4-23.2 24.1-41.7 32.7-56.9 1.4-2.4 6.1-10.4 10.4-17.8 4.3-7.5 7.9-13.9 7.9-14.4s.5-.9 1-.9c.6 0 1-.4 1-.9 0-.9 3.6-7.3 35.3-62.1 9.3-16.2 20.4-35.4 24.5-42.5 4.1-7.2 8.3-14.2 9.3-15.7 1.1-1.5 1.9-3 1.9-3.3 0-.3 3.2-6 7.1-12.8 4-6.7 8.1-13.8 9.1-15.7 1.1-1.9 3.5-6 5.3-9 1.8-3 4.7-8 6.4-11 3.4-6 10.7-18.6 12.1-21 3-5.2 12.6-21.7 24.5-42.5 17-29.5 15.1-26.2 28.2-49 6.1-10.5 13.8-24 17.3-30 5.2-9.1 10.3-17.9 16-27.5.7-1.3 17.1-29.7 23.9-41.4 1.3-2.2 7.5-13.1 13.9-24.1 6.3-11 12.7-22 14.1-24.5 12.3-21.7 14.6-25.6 15.1-26 .3-.3 1.6-2.5 2.9-5 1.4-2.5 2.9-5.2 3.4-6.1.7-1.2.2-3-2.1-7-3.4-6.1-16.9-29.6-18.2-31.9-1.3-2-15.4-26.4-27.2-47-9.7-16.9-16.5-28.6-26.4-45.8-6.1-10.4-8.2-14-11.5-20-1.2-2-8-13.8-15.2-26.2-17.8-30.7-33.7-58.3-37.6-65.3-1.8-3.1-3.4-5.7-3.6-5.7-.2 0-.7.6-1.2 1.2z"/></svg>